<svg width="200" height="40" viewBox="0 0 200 40" fill="none" xmlns="http://www.w3.org/2000/svg">
<path d="M9.07303 20L4.55616 24.4922L0 20L4.55616 15.4688L9.07303 20ZM20.1099 9.02343L27.8868 16.7578L32.443 12.2266L20.1099 0L7.77688 12.2656L12.3331 16.7968L20.1099 9.02343ZM35.6636 15.4688L31.1468 20L35.703 24.5313L40.2591 20L35.6636 15.4688ZM20.1099 30.9765L12.3331 23.2032L7.77688 27.7343L20.1099 40L32.443 27.7343L27.8868 23.2032L20.1099 30.9765ZM20.1099 24.4922L24.6662 19.961L20.1099 15.4688L15.5538 20L20.1099 24.4922ZM68.0282 24.961V24.8828C68.0282 21.9532 66.457 20.4687 63.904 19.4922C65.4751 18.6328 66.8106 17.2265 66.8106 14.7656V14.6875C66.8106 11.25 64.0218 9.02343 59.5442 9.02343H49.293V30.9375H59.78C64.7681 30.9765 68.0282 28.9453 68.0282 24.961ZM61.9795 15.5859C61.9795 17.2265 60.644 17.8907 58.4837 17.8907H54.0062V13.2422H58.7979C60.8404 13.2422 61.9795 14.0625 61.9795 15.5078V15.5859ZM63.197 24.336C63.197 25.9765 61.9009 26.7187 59.78 26.7187H54.0062V21.914H59.6228C62.0973 21.914 63.197 22.8125 63.197 24.2968V24.336ZM78.201 30.9375V9.02343H73.3305V30.9375H78.201ZM104.281 30.9765V9.02343H99.4892V22.539L89.1592 9.02343H84.6816V30.9375H89.4734V17.0313L100.157 30.9765H104.281ZM131.147 30.9765L121.681 8.90625H117.203L107.737 30.9765H112.726L114.729 26.0547H124.037L126.041 30.9765H131.147ZM122.309 21.7968H116.457L119.403 14.6875L122.309 21.7968ZM154.281 30.9765V9.02343H149.489V22.539L139.159 9.02343H134.682V30.9375H139.473V17.0313L150.157 30.9765H154.281ZM179.3 27.4218L176.198 24.336C174.469 25.8985 172.937 26.914 170.385 26.914C166.614 26.914 163.982 23.789 163.982 20.039V19.9218C163.982 16.1719 166.653 13.0859 170.385 13.0859C172.583 13.0859 174.313 14.0234 176.041 15.5469L179.143 11.9922C177.101 10 174.626 8.59375 170.464 8.59375C163.707 8.59375 158.955 13.7109 158.955 19.9218V20C158.955 26.289 163.786 31.289 170.267 31.289C174.509 31.3282 177.023 29.8437 179.3 27.4218ZM200 30.9375V26.6797H188.02V22.0703H198.428V17.7735H188.02V13.3203H199.842V9.02343H183.228V30.9375H200Z" fill="#606060"/>
</svg>
