<svg width="133" height="40" viewBox="0 0 133 40" fill="none" xmlns="http://www.w3.org/2000/svg">
<path d="M52.1291 19.409C53.1298 18.8425 53.9304 18.1369 54.514 17.3051C55.1773 16.3648 55.5282 15.2408 55.5173 14.0913C55.5173 11.8741 54.6858 10.1423 53.0472 8.94614C51.428 7.76157 49.2006 7.16284 46.4244 7.16284H36.3862V32.8514H46.8259C49.7493 32.8514 52.0904 32.1741 53.7832 30.8363C55.4889 29.4869 56.3554 27.5981 56.3554 25.2199C56.3554 23.7714 55.9473 22.5263 55.1455 21.5181C54.4262 20.6168 53.4126 19.9086 52.1291 19.409ZM41.8185 11.793H45.9879C47.296 11.793 48.2825 12.0454 48.9242 12.5436C49.5569 13.0329 49.8668 13.6793 49.8668 14.5136C49.8668 15.3506 49.5569 16.0278 48.9242 16.521C48.2825 17.018 47.296 17.2704 45.9879 17.2704H41.8185V11.793ZM49.668 27.3508C48.9449 27.929 47.8409 28.2212 46.3882 28.2212H41.8185V21.9353H46.3895C47.8409 21.9353 48.9462 22.2185 49.6719 22.7722C50.3911 23.3259 50.7397 24.0559 50.7397 25.0074C50.7397 26.0092 50.3898 26.7753 49.668 27.3508ZM63.6961 13.642H58.2264V32.8501H63.6948L63.6961 13.642ZM117.71 16.5326C116.835 15.4975 115.731 14.6779 114.486 14.1377C113.213 13.575 111.781 13.2892 110.233 13.2892C108.335 13.2892 106.622 13.7192 105.141 14.5664C103.677 15.3977 102.467 16.6111 101.642 18.0764C100.801 19.5571 100.377 21.2722 100.377 23.1765C100.377 25.0821 100.79 26.9105 101.603 28.4131C102.398 29.8977 103.61 31.1192 105.09 31.9282C106.584 32.751 108.338 33.1681 110.306 33.1681C112.721 33.1681 114.77 32.563 116.401 31.3668C117.97 30.217 119.048 28.5959 119.637 26.5641H114.131C113.842 27.2556 113.434 27.844 112.849 28.2586C112.158 28.7479 111.266 28.9951 110.197 28.9951C109.269 28.9951 108.474 28.771 107.834 28.3281C107.192 27.8839 106.701 27.2298 106.378 26.3787C106.172 25.8195 106.034 25.2377 105.966 24.6456H119.732L119.76 24.4757C120.005 22.9267 119.943 21.4589 119.574 20.1133C119.22 18.7987 118.585 17.5764 117.71 16.5313V16.5326ZM106.054 21.0906C106.138 20.6927 106.252 20.3018 106.396 19.9215C106.732 19.0588 107.216 18.3957 107.837 17.9528C108.456 17.5098 109.226 17.2871 110.124 17.2871C111.252 17.2871 112.177 17.6515 112.875 18.3687C113.537 19.0511 113.911 19.9833 113.992 21.0893L106.054 21.0906ZM63.8097 7.16284H58.1128V11.793H63.8097V7.16284ZM93.7564 15.8218C93.1398 15.0713 92.3694 14.4611 91.4967 14.0321C90.4766 13.5389 89.2822 13.2892 87.947 13.2892C86.3136 13.2892 84.848 13.6922 83.5955 14.4827C82.343 15.2746 81.3488 16.3922 80.645 17.8034C79.9413 19.212 79.5849 20.8653 79.5849 22.7194C79.5849 24.5735 79.9594 26.1302 80.7006 27.5478C81.443 28.9706 82.4721 30.1037 83.7595 30.9174C85.0482 31.7325 86.5189 32.1471 88.1304 32.1471C89.3468 32.1471 90.4585 31.8844 91.4321 31.3655C92.1826 30.9713 92.8389 30.4201 93.3561 29.7496V31.8406C93.3561 33.1372 93.0152 34.1325 92.3438 34.7956C91.6697 35.4587 90.6445 35.7935 89.2964 35.7935C88.1343 35.7935 87.2214 35.5308 86.5822 35.0119C86.0592 34.587 85.6021 34.0308 85.4963 32.8514H80.2228C80.2719 34.5021 80.7574 35.6133 81.4443 36.5879C82.2126 37.6785 83.2947 38.5322 84.6634 39.1219C86.0166 39.7039 87.5894 40 89.3326 40C92.2611 40 94.5918 39.2661 96.2601 37.8202C97.9387 36.3665 98.7884 34.3308 98.7884 31.7711V13.642H93.7577L93.7564 15.8218ZM92.7944 25.2714C92.4774 25.9521 91.9721 26.5283 91.3379 26.9324C90.7181 27.3186 89.9691 27.5169 89.1143 27.5169C87.8747 27.5169 86.9128 27.0959 86.1703 26.2319C85.4291 25.3705 85.0534 24.1885 85.0534 22.7181C85.0534 21.2477 85.4278 20.0657 86.169 19.2043C86.9037 18.3519 87.8941 17.9193 89.113 17.9193C90.3333 17.9193 91.4102 18.3571 92.1681 19.2236C92.9326 20.0979 93.3199 21.285 93.3199 22.7516C93.3199 23.7031 93.143 24.5491 92.7944 25.2701V25.2714ZM133 18.2373V13.6432H129.053V7.16284H123.62V13.6432H120.249V18.2373H123.62V25.7568C123.62 29.9376 124.447 33.0098 129.594 32.9145L132.826 32.8501V28.5457H131.222C128.934 28.5457 129.062 27.2156 129.062 24.7448L129.053 18.2386L133 18.2373ZM78.2562 18.2373V13.6432H74.3089V7.16284H68.8766V13.6432H65.5039V18.2373H68.874V25.7568C68.874 29.9376 69.7004 33.0098 74.8486 32.9145L78.0793 32.8501V28.5457H76.4795C74.1914 28.5457 74.3179 27.2156 74.3179 24.7448L74.3089 18.2386L78.2562 18.2373ZM13.6344 11.793H21.8377L30.2295 20.1069C30.7757 20.6477 30.7783 21.5284 30.2347 22.0718L19.4721 32.8578H11.0235L13.5789 30.3805L22.9585 21.0868L13.6977 11.7917" fill="#606060"/>
<path d="M17.0051 21.0648H8.80436L0.411242 12.7509C0.28136 12.6223 0.178184 12.4695 0.107619 12.3011C0.0370536 12.1327 0.000484528 11.9521 4.7824e-06 11.7696C-0.000474963 11.5871 0.035144 11.4063 0.104823 11.2375C0.174502 11.0687 0.276873 10.9153 0.406077 10.7861L11.1686 0H19.6186L17.0645 2.47731L7.68355 11.7711L16.9457 21.0648" fill="#606060"/>
</svg>
