<svg width="225" height="66" viewBox="0 0 225 66" fill="none" xmlns="http://www.w3.org/2000/svg">
<path d="M61.4831 13.1082C62.7167 13.2824 63.9474 13.5156 65.1443 13.8477C74.0479 16.31 80.0369 24.5425 79.7098 33.8188C79.3768 43.2884 72.2833 51.2818 62.9249 52.724C62.1813 52.8391 61.4288 52.9041 60.6206 53V43.5555C61.3466 43.4182 62.0757 43.3267 62.7797 43.1393C68.0441 41.7413 71.4574 36.5246 70.5612 31.2709C69.6181 25.7412 64.8671 21.9268 59.3709 22.2855C54.0565 22.6339 49.6972 27.0151 49.568 32.3603C49.436 37.8944 49.4889 43.433 49.4625 48.97C49.461 49.2623 49.4625 49.5531 49.4625 50.0005C49.1515 49.8144 48.9491 49.7037 48.7584 49.5767C42.0227 45.0789 38.7297 36.8183 40.4518 28.7393C42.124 20.892 48.666 14.667 56.5868 13.3887C56.8963 13.3385 57.2044 13.2868 57.5124 13.2337C58.0742 13.1377 58.6404 13.061 59.2095 13.0255C59.9722 12.9783 60.6617 12.9916 61.4831 13.1082Z" fill="#606060"/>
<path d="M59.6706 23.1046C59.6706 33.0097 59.6706 42.8941 59.6706 52.9733C58.0792 52.9733 56.8266 52.7076 55.5021 52.3474C53.9062 51.9134 52.3764 51.3111 50.8187 50.6528C50.5326 50.5036 50.3464 50.3929 50.3082 50.325C50.2979 50.1907 50.2848 49.9973 50.2862 49.8217C50.3024 44.2831 50.2584 38.7431 50.3082 33.2045C50.3551 28.032 54.1967 23.76 59.279 23.1061C59.3934 23.0914 59.5122 23.1046 59.6706 23.1046Z" fill="#606060"/>
<path d="M98.6018 19.3792C98.6018 20.628 98.6018 21.9742 98.6018 23.0489C97.6821 23.2379 97.1453 23.6645 96.5879 24.1486C95.8399 24.7996 95.7225 25.7886 95.7152 26.7142C95.6829 30.8726 95.6462 35.0324 95.7269 39.1892C95.7621 40.9695 96.0833 42.0589 98.6018 42.921C98.6018 43.4966 98.6018 44.1048 98.6018 44.713C98.6018 45.3006 98.6018 45.9486 98.6018 46.6276C97.3756 46.6513 96.2667 46.2896 95.2385 45.7449C92.3915 44.2378 90.9379 41.8316 90.9056 38.6106C90.869 34.7977 90.8939 30.9833 90.8939 27.1688C90.8954 23.2482 93.8656 19.881 97.7349 19.419C97.9945 19.3865 98.2996 19.3792 98.6018 19.3792Z" fill="#606060"/>
<path d="M98.898 46.6288C98.898 45.3696 98.8686 44.0189 98.898 42.9177C99.0036 42.8927 99.0828 42.8646 99.2442 42.8026C101.371 42.0527 101.771 40.9943 101.777 39.0871C101.789 35.0247 101.786 30.9638 101.779 26.9013C101.774 24.7211 100.705 23.2184 98.898 23.0456C98.898 22.4626 98.898 21.8544 98.898 21.2447C98.898 20.6587 98.898 20.0239 98.898 19.3803C99.7208 19.2932 102.247 19.8232 103.433 20.9037C105.522 22.4759 106.572 24.6104 106.578 27.238C106.587 31.0052 106.581 34.7708 106.581 38.538C106.581 42.311 104.423 45.2265 100.808 46.2952C100.231 46.4635 99.5111 46.5905 98.898 46.6288Z" fill="#606060"/>
<path d="M116.698 19.9514H111.802V46.0441H116.698V19.9514Z" fill="#606060"/>
<path d="M117.161 23.1594V19.9517C117.161 19.9517 119.797 19.9517 121.419 19.9517C123.041 19.9517 125.944 22.1674 126.031 24.6163C126.11 26.8395 126.039 38.9809 126.028 41.232C126.026 41.5273 125.987 41.8136 125.902 42.0956C125.231 44.2951 123.25 45.8244 120.966 45.907L117.161 46.0443V42.6329C117.161 42.6329 118.986 42.7052 119.55 42.5458C120.115 42.3849 121.264 41.2453 121.259 40.3877C121.255 39.4399 121.259 25.5552 121.259 25.5552C121.259 25.5552 121.294 24.6031 120.369 23.8398C119.894 23.4487 119.286 23.2583 118.673 23.2288L117.161 23.1594Z" fill="#606060"/>
<path d="M134.906 19.9514L128.924 46.0455H133.791L135.007 39.8796L138.571 39.9224L138.208 36.9922H135.529L136.905 30.2137L134.906 19.9514Z" fill="#606060"/>
<path d="M135.399 19.9517H139.469L145.147 46.0458H140.21L135.399 19.9517Z" fill="#606060"/>
<path d="M153.965 19.9514H149.087V46.0441H153.965V19.9514Z" fill="#606060"/>
<path d="M164.051 19.9514H159.172V46.0441H164.051V19.9514Z" fill="#606060"/>
<path d="M170.192 42.7732H164.406V46.0458H170.192V42.7732Z" fill="#606060"/>
<path d="M170.408 19.9514H174.609L180.229 40.2147V46.0455H175.319V38.1156L170.408 19.9514Z" fill="#606060"/>
<path d="M180.026 38.4066L185 19.9517H180.548L177.911 30.6804L180.026 38.4066Z" fill="#606060"/>
</svg>
