<svg width="168" height="32" viewBox="0 0 168 32" fill="none" xmlns="http://www.w3.org/2000/svg">
<path d="M141.826 7.21906C151.093 8.79893 151.976 25.7125 137.137 24.5864C136.289 24.5248 135.424 25.0178 135.699 23.7628C136.225 21.3258 139.277 22.76 141.563 22.0989C146.743 20.6031 146.626 10.771 141.119 9.58326C138.932 9.11266 136.202 9.6673 133.933 9.46561V24.592H131.01V7.21906C134.284 7.60563 138.727 6.69244 141.826 7.21906Z" fill="#606060"/>
<path d="M62.896 7.21896C68.1288 8.30021 67.585 16.1883 62.0249 17.0175L68.4503 24.5807C63.3813 25.9252 62.1652 19.8243 59.4056 17.8242C58.1602 16.9222 56.8389 18.0147 57.3358 15.6225C67.0588 16.0819 65.3984 7.39263 56.1724 8.89967V24.5863H53.249V7.21896C56.0613 7.61112 60.3059 6.68673 62.896 7.21896Z" fill="#606060"/>
<path d="M164.92 22.3453L159.079 10.0257C158.179 11.8297 153.829 24.0932 153.145 24.5134C152.578 24.8552 151.098 24.4686 150.303 24.5862C149.561 23.9532 156.963 8.80439 158.29 7.31416L161.348 7.29175C163.037 13.2303 167.311 18.6197 168.428 24.5918H156.15C156.179 24.2221 156.612 22.3509 156.735 22.3509H164.92V22.3453Z" fill="#606060"/>
<path d="M128.086 7.21924C128.559 10.7935 123.654 9.11844 121.07 9.46018V24.5866H117.562V9.46018C114.977 9.11844 110.072 10.7935 110.546 7.21924H128.086Z" fill="#606060"/>
<path d="M184.214 7.21891C184.296 7.29735 184.296 9.37582 184.214 9.45986C183.974 9.70076 178.309 9.28619 177.198 9.45986V24.5862H173.69C173.468 23.9756 174.275 23.3593 174.275 23.1856V9.45986C173.164 9.28619 167.498 9.70076 167.259 9.45986C167.177 9.38143 167.142 7.21891 167.259 7.21891C169.551 7.21891 183.624 6.63627 184.214 7.21891Z" fill="#606060"/>
<path d="M102.361 24.581C101.793 21.4604 103.208 22.7602 104.91 21.7126C109.593 18.8329 109.108 12.4743 104.518 9.88596C102.992 9.0288 101.852 10.3117 102.355 7.21924C114.247 7.21364 114.229 24.5978 102.355 24.581H102.361Z" fill="#606060"/>
<path d="M80.1428 24.581C79.5757 21.4604 80.9906 22.7602 82.6919 21.7126C87.2056 18.9394 87.1588 12.8384 82.6919 10.0876C80.9906 9.04001 79.5698 10.3398 80.1428 7.21924C92.0349 7.21364 92.0174 24.5978 80.1428 24.581Z" fill="#606060"/>
<path d="M100.022 7.21924C100.87 10.4574 97.9057 9.20248 95.9646 10.8888C93.5441 12.9897 93.5207 18.4072 95.6722 20.6313C97.6192 22.6369 100.899 21.2868 100.022 24.581C87.8845 24.4129 88.0307 7.42653 100.022 7.21924Z" fill="#606060"/>
<path d="M77.8041 7.21925C78.4648 10.1997 76.4301 9.16887 74.2786 10.844C71.4137 13.0681 70.9226 18.0262 73.4542 20.6313C75.4011 22.637 78.6811 21.2868 77.8041 24.581C65.912 24.5866 65.9295 7.20244 77.8041 7.21925Z" fill="#606060"/>
<path d="M41.5493 3.85764L29.2888 9.46001C28.3417 7.25828 26.956 0.9108 24.629 0.171288C21.5537 -0.809125 14.1577 2.67554 11.1408 4.12656C9.76682 4.78763 0.476475 9.58886 0.137368 10.0987C-1.07874 11.9194 6.17112 25.4604 6.48684 28.508C10.217 26.6705 29.7098 15.1352 32.7383 18.4742C33.7674 19.6059 31.3059 22.351 30.2886 23.0625C30.0372 23.2418 29.1602 23.6676 28.5171 24.1046C26.7806 25.2923 21.2087 28.6201 21.6765 31.0123C22.1559 33.4605 29.0374 30.6425 30.4523 30.1887C36.9129 28.1047 42.5081 24.676 48.5477 21.7404L41.5551 3.86325L41.5493 3.85764Z" fill="#606060"/>
</svg>
