<svg width="194" height="40" viewBox="0 0 194 40" fill="none" xmlns="http://www.w3.org/2000/svg">
<path d="M0.0476299 21.3711C-0.0175811 20.6049 -0.014149 19.3918 0.0476299 18.6221C1.27463 3.13931 18.8885 -5.33378 31.6407 3.70361C42.7952 11.6089 42.7918 28.3912 31.6407 36.2879C18.8456 45.3494 1.37588 36.8401 0.0476299 21.3711ZM25.8455 6.69076C25.4937 6.69076 25.0749 6.77532 24.7249 6.84607C19.1442 7.97811 13.0881 10.7168 7.47311 12.0611C2.89461 14.5322 4.72052 22.6378 10.2051 21.844C12.6574 21.4885 16.3435 19.9336 18.9022 19.2226C19.3089 19.1105 20.8963 18.5755 21.1383 18.6998L22.1782 28.8243C23.4292 34.3154 32.2533 33.7805 32.4507 27.9805L30.6076 10.4061C29.9023 8.49927 27.9734 6.68731 25.842 6.68903L25.8455 6.69076Z" fill="#606060"/>
<path d="M64.2241 13.0758C63.7471 12.9204 63.6664 9.04284 61.2605 8.31115C60.7937 8.16965 58.7927 7.99535 58.4203 8.11788L58.1629 8.375V30.1634C58.2985 31.9978 58.7138 32.7381 60.7027 32.8451L60.6358 34.5674L48.8721 34.6536L48.7193 32.8469C50.9296 32.7571 51.1562 31.7459 51.2746 29.8356L51.2832 8.09544C50.0476 8.45093 48.534 7.90044 47.4254 8.6097C46.1178 9.44838 45.7179 11.6918 45.2837 13.0792H42.0266V5.34644H67.138L67.3954 5.60356V12.8204L67.138 13.0775H64.2241V13.0758Z" fill="#606060"/>
<path d="M89.9856 8.01684V14.8902L85.4706 15.0352C84.8888 14.835 84.8511 12.2706 82.869 12.1309C80.8869 11.9911 79.5072 14.1827 79.351 16.0016C79.1726 18.0896 79.0747 27.0079 79.6084 28.6439C79.9568 29.7121 80.8303 30.147 81.9217 30.1918C81.8822 30.713 82.1156 31.7536 81.6883 32.0918C81.0156 32.6233 71.6064 32.0262 70.0396 32.2229C69.5402 32.059 69.8062 30.675 69.7787 30.2039C71.3352 29.9278 71.7831 29.1875 71.9856 27.693C72.6103 23.0855 71.5171 17.1509 71.9942 12.3949C71.9822 10.9419 70.8204 10.2809 69.5162 10.1015L69.4166 8.44654L69.6638 8.08069L78.9254 7.84255L79.2858 8.00821L79.0988 11.4544C81.872 8.07379 85.7932 7.07635 89.9839 8.01857L89.9856 8.01684Z" fill="#606060"/>
<path d="M93.5129 10.5932C95.6443 9.75277 97.7482 8.77776 99.9894 8.23762C103.425 7.40929 109.426 6.79668 111.823 10.022C114.597 13.7529 112.46 23.6548 113.435 28.5126C113.744 30.0502 115.009 29.5791 115.628 30.0951C115.894 30.316 116.021 32.0882 115.369 32.0744L106.823 32.0503C106.15 31.8277 107.039 29.3806 106.627 28.8112C103.296 33.2255 93.6365 34.361 92.1898 27.8172C90.5475 20.3881 100.322 18.3156 105.747 18.1327L105.984 17.9066C105.731 15.7668 106.411 11.4491 103.597 10.714C100.137 9.81144 98.7367 12.4535 98.3145 15.4078H93.772L93.5146 15.1507V10.5966L93.5129 10.5932ZM106.027 20.7315C103.145 20.9697 99.4591 21.5202 99.164 25.1061C98.7881 29.6654 103.881 29.4721 105.483 26.4591C105.574 26.2865 106.027 25.1872 106.027 25.1148V20.7333V20.7315Z" fill="#606060"/>
<path d="M132.768 14.6355C132.38 12.3593 131.73 9.60514 128.789 10.5612C125.314 11.6898 125.315 19.6624 125.75 22.6133C126.215 25.7765 127.462 28.4616 131.14 28.208C133.39 28.0527 134.534 26.629 136.266 25.4693C136.803 26.182 137.601 26.8895 138.093 27.6057C138.217 27.7869 138.311 27.7852 138.181 28.0371C138.061 28.2701 136.763 29.3417 136.453 29.5816C129.197 35.1797 119.302 32.5135 118.05 22.7772C116.596 11.474 123.929 6.20037 134.524 7.81043C135.61 7.97609 136.947 8.24357 137.913 8.70778V14.3784L137.656 14.6355H132.77H132.768Z" fill="#606060"/>
<path d="M152.573 10.0428C148.875 10.6295 153.465 14.4881 154.119 16.1362L154.472 16.2449C155.397 14.3242 160.017 10.935 155.751 9.89955L155.699 8.19458C155.984 8.04617 156.293 8.01338 156.611 7.99095C158.507 7.85289 162.71 7.75798 164.511 7.99095C165.546 8.12383 165.339 9.08503 165.196 9.8961L162.61 11.4268L156.025 18.9093L163.053 28.6974C163.674 29.3963 164.482 30.0261 165.428 30.1832L165.287 32.1505H153.609L153.456 30.1694C153.951 30.2419 154.835 29.8432 154.967 29.3514C155.246 28.3125 152.137 24.9199 151.648 23.8033C151.432 23.7568 151.347 23.9345 151.224 24.0657C150.592 24.7318 149.647 25.976 149.096 26.7439C148.487 27.5929 147.356 28.8078 148.468 29.7449C148.859 30.0745 149.71 30.1004 149.825 30.4455L149.688 32.1505L140.323 32.0642L140.265 30.1797L141.628 29.7431C144.727 27.3444 147.073 24.0622 149.678 21.1458C147.563 18.2191 145.611 14.8108 143.328 12.0411C142.551 11.0972 141.895 10.2412 140.67 9.8961C140.512 9.17131 140.359 8.02374 141.355 7.99095L152.163 7.99785L152.568 8.27914L152.574 10.0428H152.573Z" fill="#606060"/>
<path d="M193.998 30.2448L193.991 32.0084L193.586 32.2897L182.779 32.2966C181.788 32.2673 181.934 31.1231 182.094 30.3914C183.317 29.9272 183.963 29.6114 184.225 28.2326C183.786 24.1169 184.997 18.0718 184.021 14.2098C182.96 10.0094 178.042 12.132 177.383 15.3573C177.68 19.3143 176.99 23.8235 177.409 27.7115C177.565 29.161 178.027 30.105 179.599 30.2413L179.537 32.1275L167.95 32.2103L167.809 30.243C169.445 29.9652 169.87 29.1075 170.014 27.5579C170.457 22.8105 169.683 17.4212 170.025 12.6049C169.875 10.9016 169.041 10.4012 167.469 10.0975L167.449 8.0577L177.109 7.9093C177.349 7.98523 177.32 8.09049 177.359 8.28204C177.483 8.89121 176.882 10.5617 177.049 11.3227C179.346 9.40891 181.701 7.67633 184.852 7.70394C195.066 7.7954 190.523 22.0961 191.827 28.5536C192.032 29.5648 193.041 30.1637 194 30.2413L193.998 30.2448Z" fill="#606060"/>
</svg>
