<svg width="32" height="32" viewBox="0 0 32 32" fill="none" xmlns="http://www.w3.org/2000/svg">
<path d="M31.5177 19.8705C29.3808 28.442 20.6992 33.6584 12.1267 31.521C3.55778 29.3841 -1.65868 20.702 0.479177 12.1312C2.61515 3.5587 11.2967 -1.65814 19.8666 0.478775C28.4385 2.61569 33.6546 11.2987 31.5175 19.8706L31.5176 19.8705H31.5177Z" fill="#F3BA2F"/>
<path fill-rule="evenodd" clip-rule="evenodd" d="M15.9987 10.1553L11.8556 14.2984L11.8557 14.2983L9.4451 11.8876L15.9987 5.33398L22.5544 11.8895L20.1438 14.3002L15.9987 10.1553ZM7.74278 13.5896L5.33203 16.0007L7.74261 18.4109L10.1534 16.0001L7.74278 13.5896ZM11.8556 17.7031L15.9987 21.846L20.1437 17.7012L22.5556 20.1106L22.5544 20.1118L15.9987 26.6673L9.4451 20.1137L9.44168 20.1103L11.8556 17.7031ZM24.2548 13.5909L21.844 16.0017L24.2547 18.4123L26.6654 16.0015L24.2548 13.5909Z" fill="white"/>
<path d="M18.4432 15.9989H18.4442L15.9982 13.5527L14.1903 15.3602L13.9826 15.568L13.5542 15.9964L13.5508 15.9998L13.5542 16.0033L15.9982 18.4476L18.4444 16.0015L18.4456 16.0001L18.4434 15.9989" fill="white"/>
</svg>
